<svg id="Component_80_1" data-name="Component 80 – 1" xmlns="http://www.w3.org/2000/svg" width="346.801" height="740.598" viewBox="0 0 346.801 740.598">
  <g id="Group_22265" data-name="Group 22265" transform="translate(73.212 235.028) rotate(9)">
    <g id="Group_22257" data-name="Group 22257" transform="translate(99.999 293)" opacity="0.7">
      <g id="Ellipse_59" data-name="Ellipse 59" transform="translate(28 27)" fill="none" stroke="#e0301e" stroke-width="3.5">
        <ellipse cx="61" cy="60.5" rx="61" ry="60.5" stroke="none"/>
        <ellipse cx="61" cy="60.5" rx="59.25" ry="58.75" fill="none"/>
      </g>
      <g id="Ellipse_60" data-name="Ellipse 60" transform="translate(13 13)" fill="none" stroke="#e0301e" stroke-width="2" opacity="0.7">
        <ellipse cx="76" cy="75" rx="76" ry="75" stroke="none"/>
        <ellipse cx="76" cy="75" rx="75" ry="74" fill="none"/>
      </g>
      <g id="Ellipse_61" data-name="Ellipse 61" fill="none" stroke="#e0301e" stroke-width="2" opacity="0.4">
        <ellipse cx="88.5" cy="87.5" rx="88.5" ry="87.5" stroke="none"/>
        <ellipse cx="88.5" cy="87.5" rx="87.5" ry="86.5" fill="none"/>
      </g>
    </g>
    <g id="Group_22258" data-name="Group 22258" transform="translate(76.999 189)" opacity="0.7">
      <g id="Ellipse_59-2" data-name="Ellipse 59" transform="translate(20 20)" fill="none" stroke="#848383" stroke-width="3.5">
        <ellipse cx="36.5" cy="36" rx="36.5" ry="36" stroke="none"/>
        <ellipse cx="36.5" cy="36" rx="34.75" ry="34.25" fill="none"/>
      </g>
      <g id="Ellipse_60-2" data-name="Ellipse 60" transform="translate(9 10)" fill="none" stroke="#848383" stroke-width="2" opacity="0.7">
        <ellipse cx="47" cy="46" rx="47" ry="46" stroke="none"/>
        <ellipse cx="47" cy="46" rx="46" ry="45" fill="none"/>
      </g>
      <g id="Ellipse_61-2" data-name="Ellipse 61" transform="translate(0 0)" fill="none" stroke="#848383" stroke-width="2" opacity="0.4">
        <ellipse cx="56" cy="55.5" rx="56" ry="55.5" stroke="none"/>
        <ellipse cx="56" cy="55.5" rx="55" ry="54.5" fill="none"/>
      </g>
    </g>
    <g id="Group_22261" data-name="Group 22261" transform="translate(-0.001 365)" opacity="0.2">
      <g id="Ellipse_59-3" data-name="Ellipse 59" transform="translate(19 19)" fill="none" stroke="#848383" stroke-width="3.5">
        <ellipse cx="33.5" cy="33" rx="33.5" ry="33" stroke="none"/>
        <ellipse cx="33.5" cy="33" rx="31.75" ry="31.25" fill="none"/>
      </g>
      <g id="Ellipse_60-3" data-name="Ellipse 60" transform="translate(8 9)" fill="none" stroke="#848383" stroke-width="2" opacity="0.7">
        <ellipse cx="44" cy="43" rx="44" ry="43" stroke="none"/>
        <ellipse cx="44" cy="43" rx="43" ry="42" fill="none"/>
      </g>
      <g id="Ellipse_61-3" data-name="Ellipse 61" fill="none" stroke="#848383" stroke-width="2" opacity="0.4">
        <ellipse cx="52" cy="51.5" rx="52" ry="51.5" stroke="none"/>
        <ellipse cx="52" cy="51.5" rx="51" ry="50.5" fill="none"/>
      </g>
    </g>
    <g id="Group_22259" data-name="Group 22259" transform="translate(188.999 213)">
      <g id="Ellipse_59-4" data-name="Ellipse 59" transform="translate(20 20)" fill="none" stroke="#3b3b3b" stroke-width="3.5">
        <ellipse cx="23.5" cy="24" rx="23.5" ry="24" stroke="none"/>
        <ellipse cx="23.5" cy="24" rx="21.75" ry="22.25" fill="none"/>
      </g>
      <g id="Ellipse_60-4" data-name="Ellipse 60" transform="translate(9 10)" fill="none" stroke="#3b3b3b" stroke-width="2" opacity="0.7">
        <ellipse cx="34.5" cy="34" rx="34.5" ry="34" stroke="none"/>
        <ellipse cx="34.5" cy="34" rx="33.5" ry="33" fill="none"/>
      </g>
      <g id="Ellipse_61-4" data-name="Ellipse 61" transform="translate(0)" fill="none" stroke="#3b3b3b" stroke-width="2" opacity="0.4">
        <ellipse cx="43.5" cy="43.5" rx="43.5" ry="43.5" stroke="none"/>
        <ellipse cx="43.5" cy="43.5" rx="42.5" ry="42.5" fill="none"/>
      </g>
    </g>
    <g id="Group_22263" data-name="Group 22263" transform="translate(111.999 42)" opacity="0.9">
      <g id="Ellipse_59-5" data-name="Ellipse 59" transform="translate(18 17)" fill="none" stroke="#3b3b3b" stroke-width="3.5">
        <ellipse cx="21" cy="21.5" rx="21" ry="21.5" stroke="none"/>
        <ellipse cx="21" cy="21.5" rx="19.25" ry="19.75" fill="none"/>
      </g>
      <g id="Ellipse_60-5" data-name="Ellipse 60" transform="translate(8 9)" fill="none" stroke="#3b3b3b" stroke-width="2" opacity="0.7">
        <ellipse cx="30.5" cy="30" rx="30.5" ry="30" stroke="none"/>
        <ellipse cx="30.5" cy="30" rx="29.5" ry="29" fill="none"/>
      </g>
      <g id="Ellipse_61-5" data-name="Ellipse 61" transform="translate(0 0)" fill="none" stroke="#3b3b3b" stroke-width="2" opacity="0.4">
        <ellipse cx="38.5" cy="38.5" rx="38.5" ry="38.5" stroke="none"/>
        <ellipse cx="38.5" cy="38.5" rx="37.5" ry="37.5" fill="none"/>
      </g>
    </g>
    <g id="Group_22260" data-name="Group 22260" transform="translate(24.999 278)" opacity="0.73">
      <g id="Ellipse_59-6" data-name="Ellipse 59" transform="translate(20 20)" fill="none" stroke="#c28a00" stroke-width="3.5">
        <ellipse cx="23.5" cy="24" rx="23.5" ry="24" stroke="none"/>
        <ellipse cx="23.5" cy="24" rx="21.75" ry="22.25" fill="none"/>
      </g>
      <g id="Ellipse_60-6" data-name="Ellipse 60" transform="translate(9 10)" fill="none" stroke="#c28a00" stroke-width="2" opacity="0.7">
        <ellipse cx="34.5" cy="34" rx="34.5" ry="34" stroke="none"/>
        <ellipse cx="34.5" cy="34" rx="33.5" ry="33" fill="none"/>
      </g>
      <g id="Ellipse_61-6" data-name="Ellipse 61" fill="none" stroke="#c28a00" stroke-width="2" opacity="0.4">
        <ellipse cx="43.5" cy="43.5" rx="43.5" ry="43.5" stroke="none"/>
        <ellipse cx="43.5" cy="43.5" rx="42.5" ry="42.5" fill="none"/>
      </g>
    </g>
    <g id="Group_22262" data-name="Group 22262" transform="translate(167.998 154)" opacity="0.6">
      <g id="Ellipse_59-7" data-name="Ellipse 59" transform="translate(15.001 15)" fill="none" stroke="#741910" stroke-width="3.5">
        <ellipse cx="17.5" cy="18" rx="17.5" ry="18" stroke="none"/>
        <ellipse cx="17.5" cy="18" rx="15.75" ry="16.25" fill="none"/>
      </g>
      <g id="Ellipse_60-7" data-name="Ellipse 60" transform="translate(7 7)" fill="none" stroke="#741910" stroke-width="2" opacity="0.7">
        <ellipse cx="25.5" cy="25.5" rx="25.5" ry="25.5" stroke="none"/>
        <ellipse cx="25.5" cy="25.5" rx="24.5" ry="24.5" fill="none"/>
      </g>
      <g id="Ellipse_61-7" data-name="Ellipse 61" transform="translate(0 0)" fill="none" stroke="#741910" stroke-width="2" opacity="0.4">
        <ellipse cx="32.5" cy="32.5" rx="32.5" ry="32.5" stroke="none"/>
        <ellipse cx="32.5" cy="32.5" rx="31.5" ry="31.5" fill="none"/>
      </g>
    </g>
    <g id="Group_22264" data-name="Group 22264" transform="translate(68.999 0)" opacity="0.6">
      <g id="Ellipse_59-8" data-name="Ellipse 59" transform="translate(7.001 7)" fill="none" stroke="#e0301e" stroke-width="2">
        <ellipse cx="8.5" cy="9" rx="8.5" ry="9" stroke="none"/>
        <ellipse cx="8.5" cy="9" rx="7.5" ry="8" fill="none"/>
      </g>
      <g id="Ellipse_61-8" data-name="Ellipse 61" transform="translate(0 0)" fill="none" stroke="#e0301e" stroke-width="2" opacity="0.4">
        <ellipse cx="16" cy="16" rx="16" ry="16" stroke="none"/>
        <ellipse cx="16" cy="16" rx="15" ry="15" fill="none"/>
      </g>
    </g>
  </g>
  <g id="Group_22305" data-name="Group 22305" transform="translate(-729.106 -122.266)">
    <g id="Group_22258-2" data-name="Group 22258" transform="translate(962.051 303.357) rotate(-120)" opacity="0.2">
      <g id="Ellipse_59-9" data-name="Ellipse 59" transform="translate(41.352 40.21)" fill="none" stroke="#848383" stroke-width="3.5">
        <ellipse cx="36.5" cy="36" rx="36.5" ry="36" stroke="none"/>
        <ellipse cx="36.5" cy="36" rx="34.75" ry="34.25" fill="none"/>
      </g>
      <g id="Ellipse_60-8" data-name="Ellipse 60" transform="translate(30.352 30.21)" fill="none" stroke="#848383" stroke-width="2" opacity="0.7">
        <ellipse cx="47" cy="46" rx="47" ry="46" stroke="none"/>
        <ellipse cx="47" cy="46" rx="46" ry="45" fill="none"/>
      </g>
      <g id="Ellipse_61-9" data-name="Ellipse 61" transform="translate(21.352 20.21)" fill="none" stroke="#848383" stroke-width="2" opacity="0.4">
        <ellipse cx="56" cy="55.5" rx="56" ry="55.5" stroke="none"/>
        <ellipse cx="56" cy="55.5" rx="55" ry="54.5" fill="none"/>
      </g>
    </g>
    <g id="Group_22260-2" data-name="Group 22260" transform="translate(978.43 386.215) rotate(-120)">
      <g id="Ellipse_59-10" data-name="Ellipse 59" transform="translate(41.785 40.11)" fill="none" stroke="#741910" stroke-width="3.5">
        <ellipse cx="23.5" cy="24" rx="23.5" ry="24" stroke="none"/>
        <ellipse cx="23.5" cy="24" rx="21.75" ry="22.25" fill="none"/>
      </g>
      <g id="Ellipse_60-9" data-name="Ellipse 60" transform="translate(30.785 30.11)" fill="none" stroke="#741910" stroke-width="2" opacity="0.7">
        <ellipse cx="34.5" cy="34" rx="34.5" ry="34" stroke="none"/>
        <ellipse cx="34.5" cy="34" rx="33.5" ry="33" fill="none"/>
      </g>
      <g id="Ellipse_61-10" data-name="Ellipse 61" transform="translate(21.785 20.11)" fill="none" stroke="#741910" stroke-width="2" opacity="0.4">
        <circle cx="43.5" cy="43.5" r="43.5" stroke="none"/>
        <circle cx="43.5" cy="43.5" r="42.5" fill="none"/>
      </g>
    </g>
    <g id="Group_22262-2" data-name="Group 22262" transform="translate(884.543 249.373) rotate(-120)" opacity="0.6">
      <g id="Ellipse_59-11" data-name="Ellipse 59" transform="translate(36.785 35.11)" fill="none" stroke="#d04a02" stroke-width="3.5">
        <ellipse cx="17.5" cy="18" rx="17.5" ry="18" stroke="none"/>
        <ellipse cx="17.5" cy="18" rx="15.75" ry="16.25" fill="none"/>
      </g>
      <g id="Ellipse_60-10" data-name="Ellipse 60" transform="translate(28.785 27.11)" fill="none" stroke="#d04a02" stroke-width="2" opacity="0.7">
        <circle cx="25.5" cy="25.5" r="25.5" stroke="none"/>
        <circle cx="25.5" cy="25.5" r="24.5" fill="none"/>
      </g>
      <g id="Ellipse_61-11" data-name="Ellipse 61" transform="translate(21.785 20.11)" fill="none" stroke="#d04a02" stroke-width="2" opacity="0.4">
        <circle cx="32.5" cy="32.5" r="32.5" stroke="none"/>
        <circle cx="32.5" cy="32.5" r="31.5" fill="none"/>
      </g>
    </g>
    <g id="Group_22264-2" data-name="Group 22264" transform="translate(896.492 338.792) rotate(-120)" opacity="0.6">
      <g id="Ellipse_59-12" data-name="Ellipse 59" transform="translate(29.285 27.61)" fill="none" stroke="#676767" stroke-width="2">
        <ellipse cx="8.5" cy="9" rx="8.5" ry="9" stroke="none"/>
        <ellipse cx="8.5" cy="9" rx="7.5" ry="8" fill="none"/>
      </g>
      <g id="Ellipse_61-12" data-name="Ellipse 61" transform="translate(22.284 20.61)" fill="none" stroke="#676767" stroke-width="2" opacity="0.4">
        <circle cx="16" cy="16" r="16" stroke="none"/>
        <circle cx="16" cy="16" r="15" fill="none"/>
      </g>
    </g>
  </g>
</svg>
